<?xml version="1.0" encoding="UTF-8"?>
<svg width="177px" height="50px" viewBox="0 0 177 50" version="1.1" xmlns="http://www.w3.org/2000/svg" xmlns:xlink="http://www.w3.org/1999/xlink">
    <title>Logo/Smaller</title>
    <defs>
        <linearGradient x1="22.7825126%" y1="100%" x2="22.7825126%" y2="0%" id="linearGradient-1">
            <stop stop-color="#6CB2FF" offset="0%"></stop>
            <stop stop-color="#FFFFFF" offset="100%"></stop>
        </linearGradient>
        <linearGradient x1="89.1466981%" y1="0.767591783%" x2="27.5231758%" y2="71.5572667%" id="linearGradient-2">
            <stop stop-color="#00FFFF" offset="0%"></stop>
            <stop stop-color="#0089FF" offset="100%"></stop>
        </linearGradient>
        <polygon id="path-3" points="28.026208 0 44.6519247 16.6257166 0 16.6257166 0 0"></polygon>
        <linearGradient x1="50%" y1="98.2077729%" x2="16.2611607%" y2="0%" id="linearGradient-5">
            <stop stop-color="#4643E6" offset="0%"></stop>
            <stop stop-color="#00D4FE" stop-opacity="0.731260927" offset="100%"></stop>
        </linearGradient>
        <linearGradient x1="0%" y1="100%" x2="93.4183984%" y2="100%" id="linearGradient-6">
            <stop stop-color="#0082FF" stop-opacity="0" offset="0%"></stop>
            <stop stop-color="#0082FF" offset="16.0099513%"></stop>
            <stop stop-color="#0082FF" stop-opacity="0.37" offset="29.2146215%"></stop>
            <stop stop-color="#0082FF" stop-opacity="0.365930944" offset="36.6459701%"></stop>
            <stop stop-color="#0082FF" stop-opacity="0.613226617" offset="62.4529103%"></stop>
            <stop stop-color="#0082FF" stop-opacity="0.685697115" offset="80.4468969%"></stop>
            <stop stop-color="#0082FF" stop-opacity="0" offset="100%"></stop>
        </linearGradient>
        <polygon id="path-7" points="0.0130516932 0.104265993 13.4717217 0.104265993 13.4717217 16.7673345 0.0130516932 16.7673345"></polygon>
    </defs>
    <g id="Stratus-Bank" stroke="none" stroke-width="1" fill="none" fill-rule="evenodd">
        <g id="StratusBank/AccountOverview" transform="translate(-30.000000, -32.000000)">
            <rect fill="#F7F7F7" x="0" y="0" width="1440" height="1308"></rect>
            <g id="Header">
                <rect id="Rectangle" fill="#FFFFFF" x="0" y="0" width="1440" height="114"></rect>
                <g id="Logo/Smaller" transform="translate(30.000000, 27.000000)">
                    <g id="Group-2" transform="translate(0.000000, 5.000000)">
                        <g id="Logo-Copy-2" transform="translate(0.000000, 0.000000)">
                            <g id="Group-16" transform="translate(0.633361, 0.158340)">
                                <path d="M49.5356927,16.509415 L49.5356927,16.5083265 L16.6975861,16.5083265 L16.6975861,16.509415 C16.671347,16.5092595 16.6452651,16.5083265 16.619026,16.5083265 L16.619026,16.5083265 C7.5511521,16.5083265 0.1999727,23.7836614 0.1999727,32.7583265 L0.1999727,32.7583265 C0.1999727,41.7329916 7.5511521,49.0083265 16.619026,49.0083265 L16.619026,49.0083265 C16.6452651,49.0083265 16.671347,49.0073935 16.6975861,49.0073935 L16.6975861,49.0073935 L16.6975861,49.0083265 L49.5356927,49.0083265 L49.5356927,49.0073935 C49.5619317,49.0073935 49.5880137,49.0083265 49.6142527,49.0083265 L49.6142527,49.0083265 C58.6822838,49.0083265 66.033306,41.7329916 66.033306,32.7583265 L66.033306,32.7583265 C66.033306,23.7836614 58.6822838,16.5083265 49.6142527,16.5083265 L49.6142527,16.5083265 C49.5880137,16.5083265 49.5619317,16.5092595 49.5356927,16.509415" id="Fill-1" fill="url(#linearGradient-1)"></path>
                                <g id="Group-6" transform="translate(16.175949, 0.000000)" fill="url(#linearGradient-2)">
                                    <path d="M16.9406907,0.674993175 C7.96602562,0.674993175 0.690690691,7.9503281 0.690690691,16.9249932 L0.690690691,16.9249932 C0.690690691,25.8996582 7.96602562,33.1749932 16.9406907,33.1749932 L16.9406907,33.1749932 C25.9153558,33.1749932 33.1906907,25.8996582 33.1906907,16.9249932 L33.1906907,16.9249932 C33.1906907,7.9503281 25.9153558,0.674993175 16.9406907,0.674993175 Z" id="Fill-4"></path>
                                </g>
                                <g id="Group-9" transform="translate(22.076167, 16.625717)">
                                    <mask id="mask-4" fill="white">
                                        <use xlink:href="#path-3"></use>
                                    </mask>
                                    <g id="Clip-8"></g>
                                    <polygon id="Fill-7" mask="url(#mask-4)" points="44.6519247 16.6257166 0 16.6257166 0 0 28.026208 0"></polygon>
                                </g>
                                <g id="Group-12" transform="translate(32.801665, 15.792383)" fill="url(#linearGradient-5)">
                                    <path d="M16.9816407,33.2159432 C25.9563058,33.2159432 33.2316407,25.9406083 33.2316407,16.9659432 C33.2316407,7.99127814 25.9563058,0.715943216 16.9816407,0.715943216 C8.00697566,0.715943216 0.731640732,7.99127814 0.731640732,16.9659432 C0.731640732,25.9406083 8.00697566,33.2159432 16.9816407,33.2159432 Z" id="Fill-10"></path>
                                </g>
                                <g id="Group-15" transform="translate(0.199973, 16.508327)" fill="url(#linearGradient-6)">
                                    <polygon id="Fill-13" style="mix-blend-mode: screen;" points="0 16.6666667 65.8333333 16.6666667 65.8333333 0 0 0"></polygon>
                                </g>
                            </g>
                        </g>
                        <g id="Group-16" transform="translate(75.833333, 21.666667)">
                            <path d="M3.36473456,15.8621668 C3.36473456,17.944938 5.47983321,19.8676818 8.81224035,19.8676818 C12.4974322,19.8676818 13.939423,18.425691 13.939423,16.5029472 C13.939423,14.8687357 12.6577279,13.7793955 10.0942037,13.2986425 L5.76823136,12.4974322 C2.21114194,11.8566517 0.480753016,9.6455098 0.480753016,6.56930754 C0.480753016,2.88411568 3.52503028,2.66871534e-14 8.49191719,2.66871534e-14 C14.0997187,2.66871534e-14 16.9837002,3.20470712 16.9837002,7.21022213 L13.6189657,7.21022213 C13.6189657,5.12718263 11.6962219,3.20470712 8.49191719,3.20470712 C5.44750579,3.20470712 3.84548757,4.77480032 3.84548757,6.56930754 C3.84548757,8.01129831 4.77480032,9.13283178 7.21022213,9.61345066 L10.7349841,10.2542311 C15.2533113,11.0554414 17.3041575,12.9462602 17.3041575,16.5029472 C17.3041575,20.1881391 14.420176,23.0721206 8.81224035,23.0721206 C3.20470712,23.0721206 2.66871534e-14,19.8676818 2.66871534e-14,15.8621668 L3.36473456,15.8621668 Z" id="Fill-1" fill="#16161F"></path>
                            <path d="M21.6212096,9.77378662 L19.0576854,9.77378662 L19.0576854,6.72950936 L21.6212096,6.72950936 L21.6212096,2.24310719 L24.8256485,2.24310719 L24.8256485,6.72950936 L28.5107062,6.72950936 L28.5107062,9.77378662 L24.8256485,9.77378662 L24.8256485,18.9064843 C24.8256485,19.5472647 25.1459716,19.867722 25.7868862,19.867722 L28.5107062,19.867722 L28.5107062,22.7517036 L25.1459716,22.7517036 C22.8708455,22.7517036 21.6212096,21.4700085 21.6212096,19.3871031 L21.6212096,9.77378662 Z" id="Fill-3" fill="#16161F"></path>
                            <path d="M31.2215683,6.72946912 L33.9455225,6.72946912 L34.2658456,8.17145989 L34.4260072,8.17145989 C34.9708785,7.56260444 35.4835565,6.72946912 37.4702845,6.72946912 L40.354266,6.72946912 L40.354266,9.61345066 L37.7907417,9.61345066 C35.5475407,9.61345066 34.4260072,10.7349841 34.4260072,12.9462602 L34.4260072,22.7516633 L31.2215683,22.7516633 L31.2215683,6.72946912 Z" id="Fill-5" fill="#16161F"></path>
                            <path d="M52.0408299,15.3814137 L48.1953423,15.3814137 C45.7601888,15.3814137 44.6705803,16.5029472 44.6705803,17.944938 C44.6705803,19.3870629 45.6318181,20.3484348 47.5545619,20.3484348 C50.4707367,20.3484348 52.0408299,18.7461483 52.0408299,16.0224625 L52.0408299,15.3814137 Z M52.2011256,20.9893494 L52.0408299,20.9893494 C51.7203726,21.40585 51.335797,21.7583664 50.8872373,22.0466304 C50.1180861,22.5594426 48.9003752,23.0721206 47.2341046,23.0721206 C43.7093426,23.0721206 41.4661415,21.0212744 41.4661415,18.1053678 C41.4661415,14.900929 43.5489127,12.8178895 48.0353149,12.8178895 L52.0408299,12.8178895 L52.0408299,12.4974322 C52.0408299,10.414661 50.7588666,9.13283178 48.6760953,9.13283178 C46.4328943,9.13283178 45.4716565,10.414661 45.3113608,11.3758987 L42.1069219,11.3758987 C42.2673518,8.68413791 44.6705803,6.40901182 48.6760953,6.40901182 C52.8739652,6.40901182 55.2452687,8.78031534 55.2452687,12.4974322 L55.2452687,22.7516633 L52.5215829,22.7516633 L52.2011256,20.9893494 Z" id="Fill-7" fill="#16161F"></path>
                            <path d="M59.7061175,9.77378662 L57.1425932,9.77378662 L57.1425932,6.72950936 L59.7061175,6.72950936 L59.7061175,2.24310719 L62.9105563,2.24310719 L62.9105563,6.72950936 L66.595614,6.72950936 L66.595614,9.77378662 L62.9105563,9.77378662 L62.9105563,18.9064843 C62.9105563,19.5472647 63.2308795,19.867722 63.8717941,19.867722 L66.595614,19.867722 L66.595614,22.7517036 L63.2308795,22.7517036 C60.9557534,22.7517036 59.7061175,21.4700085 59.7061175,19.3871031 L59.7061175,9.77378662 Z" id="Fill-9" fill="#16161F"></path>
                            <path d="M69.0117333,6.72946912 L72.2161721,6.72946912 L72.2161721,16.3429198 C72.2161721,18.425691 73.8503836,20.1881391 76.0616597,20.1881391 C78.4648882,20.1881391 80.2272022,18.425691 80.2272022,16.3429198 L80.2272022,6.72946912 L83.4319093,6.72946912 L83.4319093,22.7516633 L80.5479277,22.7516633 L80.2272022,21.1496451 L80.0671747,21.1496451 C79.7145242,21.5020274 79.3302168,21.8224847 78.8813888,22.1108829 C78.1125059,22.5916359 76.92672,23.0721206 75.4207451,23.0721206 C71.5752575,23.0721206 69.0117333,20.5407897 69.0117333,16.3429198 L69.0117333,6.72946912 Z" id="Fill-11" fill="#16161F"></path>
                            <g id="Group-15" transform="translate(86.117030, 6.304786)">
                                <mask id="mask-8" fill="white">
                                    <use xlink:href="#path-7"></use>
                                </mask>
                                <g id="Clip-14"></g>
                                <path d="M3.21749053,11.6401922 C3.21749053,12.6016982 4.33902401,14.043689 6.90268239,14.043689 C9.30591092,14.043689 10.2674169,12.9540805 10.2674169,11.9607836 C10.2674169,10.839116 9.6585615,10.1662764 7.86392015,9.87774409 L4.9799386,9.39712522 C1.9036022,8.8844472 0.333508991,7.47451557 0.333508991,4.7506956 C0.333508991,2.18703722 2.41628022,0.104265993 6.74225253,0.104265993 C11.3889504,0.104265993 13.3114259,3.30870483 13.3114259,5.07101876 L10.1069871,5.07101876 C10.1069871,4.10978101 9.14574934,2.82808596 6.74225253,2.82808596 C4.46712644,2.82808596 3.53794783,3.75726457 3.53794783,4.7506956 C3.53794783,5.74412664 4.49918559,6.3849071 5.94117636,6.67343939 L8.82542618,7.15419241 C11.9336876,7.66687043 13.4717217,9.26888864 13.4717217,11.9607836 C13.4717217,14.5243078 11.3889504,16.7673748 6.90268239,16.7673748 C1.77549976,16.7673748 0.0130516932,13.4027744 0.0130516932,11.6401922 L3.21749053,11.6401922 Z" id="Fill-13" fill="#16161F" mask="url(#mask-8)"></path>
                            </g>
                        </g>
                    </g>
                    <g id="Bank" transform="translate(42.000000, 29.000000)" fill="#FFFFFF">
                        <path d="M1.7,6.8 L5.1,6.8 L5.1,12.75 L6.8,12.75 L6.8,6.8 L10.2,6.8 L10.2,12.75 L11.9,12.75 L11.9,6.8 L15.3,6.8 L15.3,12.75 C16.23891,12.75 17,13.51109 17,14.45 L17,15.3 C17,16.23891 16.23891,17 15.3,17 L1.7,17 C0.7611155,17 0,16.23891 0,15.3 L0,14.45 C0,13.51109 0.7611155,12.75 1.7,12.75 L1.7,6.8 Z" id="Path" opacity="0.6"></path>
                        <path d="M0,4.5509425 C0,3.855804 0.423215,3.2307055 1.068637,2.972535 L7.86862,0.252535 C8.2739,0.0904145 8.7261,0.0904145 9.13138,0.252535 L15.93138,2.972535 C16.576785,3.2307055 17,3.855804 17,4.5509425 L17,5.0999915 C17,6.038876 16.23891,6.7999915 15.3,6.7999915 L1.7,6.7999915 C0.7611155,6.7999915 0,6.038876 0,5.0999915 L0,4.5509425 Z" id="Path"></path>
                    </g>
                    <text id="KnoxBank" font-family="TTHoves-Medium, TT Hoves" font-size="14" font-weight="400" letter-spacing="-0.1" fill="#0659FD">
                        <tspan x="113.94" y="24">KnoxBank</tspan>
                    </text>
                </g>
            </g>
        </g>
    </g>
</svg>