<?xml version="1.0" encoding="UTF-8"?>
<svg version="1.1" viewBox="0 0 32 32" xmlns="http://www.w3.org/2000/svg">
<title>💎icon</title>
<defs>
<filter id="a" x="-6.8%" y="-38.3%" width="113.5%" height="176.5%">
<feGaussianBlur in="SourceGraphic" stdDeviation="25"/>
</filter>
</defs>
<g fill="none" fill-rule="evenodd">
<g transform="translate(-291 -295)">
<rect width="1440" height="874" fill="#F7F7F7"/>
<g transform="translate(250 164)">
<polygon points="17 18 1126 18 1126 214 17 214" fill="#E4E4E4" filter="url(#a)"/>
<polygon points="0 45 1140 45 1140 204 0 204" fill="#fff"/>
<g transform="translate(41 131)" fill-rule="nonzero">
<circle cx="16" cy="16" r="16" fill="#F7931A"/>
<path d="m23.293 13.374c0.31946-2.1014-1.3053-3.2312-3.5252-3.9852l0.7203-2.8473-1.758-0.4311-0.70199 2.7721c-0.46189-0.11429-0.93599-0.22056-1.4091-0.32683l0.70708-2.7901-1.758-0.4321-0.7203 2.8463c-0.38253-0.08622-0.75896-0.17043-1.1232-0.26066l0.0020347-0.009023-2.4254-0.59652-0.46799 1.8507s1.3053 0.29475 1.2778 0.3128c0.71216 0.17545 0.84035 0.63963 0.81899 1.0086l-0.82 3.2433c0.048834 0.012031 0.11191 0.030077 0.18313 0.057146l-0.18618-0.045115-1.1496 4.5436c-0.087494 0.21254-0.30826 0.53236-0.80678 0.41105 0.018313 0.025064-1.2778-0.3138-1.2778-0.3138l-0.87291 1.9831 2.2891 0.56243c0.42526 0.10527 0.84239 0.21555 1.2524 0.31881l-0.72742 2.8793 1.757 0.4311 0.7203-2.8473c0.4802 0.12732 0.94616 0.24563 1.4019 0.35791l-0.71827 2.8352 1.758 0.4311 0.72742-2.8733c2.9992 0.55943 5.2537 0.33385 6.2029-2.339 0.76507-2.1515-0.037643-3.3937-1.6156-4.2027 1.1496-0.26066 2.0144-1.0056 2.2453-2.5445zm-4.0186 5.5522c-0.54226 2.1525-4.2201 0.98852-5.4124 0.69678l0.96651-3.8147c1.1924 0.29375 5.0146 0.87423 4.4459 3.118zm0.5443-5.5832c-0.49546 1.958-3.5557 0.96245-4.5477 0.71883l0.87494-3.4588c0.99194 0.24362 4.1896 0.69778 3.6727 2.74z" fill="#fff"/>
</g>
</g>
</g>
</g>
</svg>
