<?xml version="1.0" encoding="UTF-8"?>
<svg width="21px" height="15px" viewBox="0 0 21 15" version="1.1" xmlns="http://www.w3.org/2000/svg" xmlns:xlink="http://www.w3.org/1999/xlink">
    <title>!Icons/Used/Finance/Coin</title>
    <g id="Symbols" stroke="none" stroke-width="1" fill="none" fill-rule="evenodd">
        <g id="$" transform="translate(-14.000000, -16.000000)">
            <circle id="Oval" fill="#1269FF" fill-rule="nonzero" opacity="0.615416061" cx="24" cy="24" r="24"></circle>
            <g id="!Icons/Used/Finance/Coin" transform="translate(9.450000, 8.700000)">
                <path d="M25,14 L25,21 C25.0325803,21.2739149 24.9377481,21.5476433 24.7426957,21.7426957 C24.5755079,21.9098835 24.3505174,22.0034401 24.1171519,22.0063063 L24,22 L6,22 C5.72608506,22.0325803 5.45235669,21.9377481 5.25730429,21.7426957 C5.09011652,21.5755079 4.9965599,21.3505174 4.99375849,21.1171519 L5,21 L5,14 L25,14 Z M12,18 L8,18 C7.44771525,18 7,18.4477153 7,19 C7,19.5128358 7.38604019,19.9355072 7.88337887,19.9932723 L8,20 L12,20 C12.5522847,20 13,19.5522847 13,19 C13,18.4871642 12.6139598,18.0644928 12.1166211,18.0067277 L12,18 Z M24,8 C24.2739149,7.96741967 24.5476433,8.06225189 24.7426957,8.25730429 C24.9098835,8.42449206 25.0034401,8.64948258 25.0062415,8.88284814 L25,9 L25,11 L5,11 L5,9 C4.96741967,8.72608506 5.06225189,8.45235669 5.25730429,8.25730429 C5.42449206,8.09011652 5.64948258,7.9965599 5.88284814,7.99375849 L6,8 L24,8 Z" id="Shape" fill="#FFFFFF"></path>
                <path d="M12,18 C12.5522847,18 13,18.4477153 13,19 C13,19.5522847 12.5522847,20 12,20 L12,20 L8,20 C7.44771525,20 7,19.5522847 7,19 C7,18.4477153 7.44771525,18 8,18 L8,18 Z M25,11 L25,14 L5,14 L5,11 L25,11 Z" id="Combined-Shape" fill="#1269FF"></path>
            </g>
        </g>
    </g>
</svg>