<?xml version="1.0" encoding="UTF-8"?>
<svg width="20px" height="20px" viewBox="0 0 20 20" version="1.1" xmlns="http://www.w3.org/2000/svg" xmlns:xlink="http://www.w3.org/1999/xlink">
    <title>Bottom/Icon Copy 3</title>
    <defs>
        <radialGradient cx="6.36450801%" cy="-15.3317337%" fx="6.36450801%" fy="-15.3317337%" r="98.4195356%" id="radialGradient-1">
            <stop stop-color="#8ACDFF" offset="0%"></stop>
            <stop stop-color="#78C5FF" offset="46.2742752%"></stop>
            <stop stop-color="#7BB1FF" offset="100%"></stop>
        </radialGradient>
        <radialGradient cx="64.9367762%" cy="0%" fx="64.9367762%" fy="0%" r="135.696226%" gradientTransform="translate(0.649368,0.000000),rotate(96.319645),scale(1.000000,3.717031),translate(-0.649368,-0.000000)" id="radialGradient-2">
            <stop stop-color="#FFA27A" offset="0%"></stop>
            <stop stop-color="#A527F1" offset="100%"></stop>
        </radialGradient>
    </defs>
    <g id="Stratus-Bank" stroke="none" stroke-width="1" fill="none" fill-rule="evenodd">
        <g id="StratusBank/AccountOverview" transform="translate(-31.000000, -258.000000)">
            <rect fill="none" x="0" y="0" width="1440" height="1308"></rect>
            <g id="SideMenu" transform="translate(17.000000, 148.000000)">
                <g id="Bottom/Icon-Copy-3" transform="translate(0.000000, 96.000000)">
                    <path d="M12.819426,-1.42475429e-15 L35.180574,5.17920154e-16 C39.6381677,-3.00926524e-16 41.2545989,0.464128056 42.8842285,1.33566352 C44.5138581,2.20719898 45.792801,3.48614185 46.6643365,5.11577148 C47.5358719,6.74540111 48,8.3618323 48,12.819426 L48,35.180574 C48,39.6381677 47.5358719,41.2545989 46.6643365,42.8842285 C45.792801,44.5138581 44.5138581,45.792801 42.8842285,46.6643365 C41.2545989,47.5358719 39.6381677,48 35.180574,48 L12.819426,48 C8.3618323,48 6.74540111,47.5358719 5.11577148,46.6643365 C3.48614185,45.792801 2.20719898,44.5138581 1.33566352,42.8842285 C0.464128056,41.2545989 7.27514433e-16,39.6381677 -1.25211424e-15,35.180574 L3.45280103e-16,12.819426 C-2.00617683e-16,8.3618323 0.464128056,6.74540111 1.33566352,5.11577148 C2.20719898,3.48614185 3.48614185,2.20719898 5.11577148,1.33566352 C6.74540111,0.464128056 8.3618323,8.27823274e-16 12.819426,-1.42475429e-15 Z" id="BG"></path>
                    <g id="Icon/Plus-Square" transform="translate(9.000000, 9.000000)">
                        <path d="M25,12 C25,15.866 21.866,19 18,19 C14.134,19 11,15.866 11,12 C11,8.13401 14.134,5 18,5 C21.866,5 25,8.13401 25,12 Z" id="Path" fill="url(#radialGradient-1)"></path>
                        <path d="M19,18 C19,21.866 15.866,25 12,25 C8.13401,25 5,21.866 5,18 C5,14.134 8.13401,11 12,11 C15.866,11 19,14.134 19,18 Z" id="Path" fill="url(#radialGradient-2)"></path>
                    </g>
                </g>
            </g>
        </g>
    </g>
</svg>