<?xml version="1.0" encoding="UTF-8"?>
<svg width="20px" height="20px" viewBox="0 0 20 20" version="1.1" xmlns="http://www.w3.org/2000/svg" xmlns:xlink="http://www.w3.org/1999/xlink">
    <title>Bottom/Icon Copy 3</title>
    <defs>
        <linearGradient x1="50%" y1="124.486268%" x2="50%" y2="0%" id="linearGradient-1">
            <stop stop-color="#6B00D6" offset="0%"></stop>
            <stop stop-color="#B9AEFF" offset="100%"></stop>
        </linearGradient>
    </defs>
    <g id="Stratus-Bank" stroke="none" stroke-width="1" fill="none" fill-rule="evenodd">
        <g id="StratusBank/AccountOverview" transform="translate(-24.000000, -402.000000)">
            <rect fill="none" x="0" y="0" width="1440" height="1308"></rect>
            <g id="SideMenu" transform="translate(10.000000, 148.000000)">
                <g id="Bottom/Icon-Copy-3" transform="translate(0.000000, 240.000000)">
                    <path d="M12.819426,-1.42475429e-15 L35.180574,5.17920154e-16 C39.6381677,-3.00926524e-16 41.2545989,0.464128056 42.8842285,1.33566352 C44.5138581,2.20719898 45.792801,3.48614185 46.6643365,5.11577148 C47.5358719,6.74540111 48,8.3618323 48,12.819426 L48,35.180574 C48,39.6381677 47.5358719,41.2545989 46.6643365,42.8842285 C45.792801,44.5138581 44.5138581,45.792801 42.8842285,46.6643365 C41.2545989,47.5358719 39.6381677,48 35.180574,48 L12.819426,48 C8.3618323,48 6.74540111,47.5358719 5.11577148,46.6643365 C3.48614185,45.792801 2.20719898,44.5138581 1.33566352,42.8842285 C0.464128056,41.2545989 7.27514433e-16,39.6381677 -1.25211424e-15,35.180574 L3.45280103e-16,12.819426 C-2.00617683e-16,8.3618323 0.464128056,6.74540111 1.33566352,5.11577148 C2.20719898,3.48614185 3.48614185,2.20719898 5.11577148,1.33566352 C6.74540111,0.464128056 8.3618323,8.27823274e-16 12.819426,-1.42475429e-15 Z" id="BG"></path>
                    <g id="Icon/Plus-Square" transform="translate(9.000000, 9.000000)">
                        <path d="M14.4,5.2 C14.7416408,4.89442719 15.2583592,4.89442719 15.6,5.2 L15.6,5.2 L17.4,6.7 C17.5775866,6.89230177 17.8476255,6.96945573 18.1,6.9 L18.1,6.9 L20.5,6.7 C20.9827608,6.69026429 21.4035264,7.02687678 21.5,7.5 L21.5,7.5 L22,9.6 C22.0784448,9.8595077 22.2588923,10.0760447 22.5,10.2 L22.5,10.2 L24.5,11.4 C24.9393358,11.6230685 25.1176276,12.1579437 24.9,12.6 L24.9,12.6 L24,14.6 C23.8995934,14.8572153 23.8995934,15.1427847 24,15.4 L24,15.4 L24.9,17.4 C25.1176276,17.8420563 24.9393358,18.3769315 24.5,18.6 L24.5,18.6 L22.5,19.8 C22.2588923,19.9239553 22.0784448,20.1404923 22,20.4 L22,20.4 L21.5,22.5 C21.4035264,22.9731232 20.9827608,23.3097357 20.5,23.3 L20.5,23.3 L18.1,23.1 C17.8476255,23.0305443 17.5775866,23.1076982 17.4,23.3 L17.4,23.3 L15.6,24.8 C15.2583592,25.1055728 14.7416408,25.1055728 14.4,24.8 L14.4,24.8 L12.6,23.3 C12.4224134,23.1076982 12.1523745,23.0305443 11.9,23.1 L11.9,23.1 L9.5,23.3 C9.01723924,23.3097357 8.59647363,22.9731232 8.5,22.5 L8.5,22.5 L8,20.4 C7.92155521,20.1404923 7.7411077,19.9239553 7.5,19.8 L7.5,19.8 L5.5,18.6 C5.06066419,18.3769315 4.88237243,17.8420563 5.1,17.4 L5.1,17.4 L6,15.4 C6.10040656,15.1427847 6.10040656,14.8572153 6,14.6 L6,14.6 L5.1,12.6 C4.88237243,12.1579437 5.06066419,11.6230685 5.5,11.4 L5.5,11.4 L7.5,10.2 C7.7411077,10.0760447 7.92155521,9.8595077 8,9.6 L8,9.6 L8.5,7.5 C8.59647363,7.02687678 9.01723924,6.69026429 9.5,6.7 L9.5,6.7 L11.9,6.9 C12.1523745,6.96945573 12.4224134,6.89230177 12.6,6.7 L12.6,6.7 Z M18.5,17 C17.6715729,17 17,17.6715729 17,18.5 C17,19.3284271 17.6715729,20 18.5,20 C19.3284271,20 20,19.3284271 20,18.5 C20,17.6715729 19.3284271,17 18.5,17 Z M16.9,11 L11,16.9 C10.6986494,17.1657663 10.526013,17.5481992 10.526013,17.95 C10.526013,18.3518008 10.6986494,18.7342337 11,19 C11.2973704,19.276792 11.694295,19.4211282 12.1,19.4 C12.4733363,19.4053493 12.8333422,19.2613469 13.1,19 L19,13.1 C19.5717143,12.5167347 19.5717143,11.5832653 19,11 C18.4167347,10.4282857 17.4832653,10.4282857 16.9,11 Z M11.5,10 C10.6715729,10 10,10.6715729 10,11.5 C10,12.3284271 10.6715729,13 11.5,13 C12.3284271,13 13,12.3284271 13,11.5 C13,10.6715729 12.3284271,10 11.5,10 Z" id="Combined-Shape" fill="url(#linearGradient-1)"></path>
                        <path d="M18.5,17 C19.3284271,17 20,17.6715729 20,18.5 C20,19.3284271 19.3284271,20 18.5,20 C17.6715729,20 17,19.3284271 17,18.5 C17,17.6715729 17.6715729,17 18.5,17 Z M16.9,11 C17.4832653,10.4282857 18.4167347,10.4282857 19,11 C19.5359822,11.5468112 19.5694811,12.401419 19.1004967,12.9867048 L19,13.1 L13.1,19 C12.8333422,19.2613469 12.4733363,19.4053493 12.1,19.4 C11.694295,19.4211282 11.2973704,19.276792 11,19 C10.6986494,18.7342337 10.526013,18.3518008 10.526013,17.95 C10.526013,17.5984243 10.6581877,17.2616771 10.8931128,17.0049411 L16.9,11 Z M11.5,10 C12.3284271,10 13,10.6715729 13,11.5 C13,12.3284271 12.3284271,13 11.5,13 C10.6715729,13 10,12.3284271 10,11.5 C10,10.6715729 10.6715729,10 11.5,10 Z" id="Shape" fill="#FFFFFF"></path>
                    </g>
                </g>
            </g>
        </g>
    </g>
</svg>