<?xml version="1.0" encoding="UTF-8"?>
<svg width="18px" height="22px" viewBox="0 0 18 22" version="1.1" xmlns="http://www.w3.org/2000/svg" xmlns:xlink="http://www.w3.org/1999/xlink">
    <title>Path</title>
    <g id="Symbols" stroke="none" stroke-width="1" fill="none" fill-rule="evenodd">
        <g id="!Icons/Used/File-Types/File-Download" transform="translate(-6.000000, -4.000000)">
            <path d="M6,7 C6,5.3431 7.343,4 9,4 L18.757,4 C19.553,4 20.316,4.3161 20.879,4.8787 L23.121,7.1213 C23.684,7.6839 24,8.447 24,9.2426 L24,23 C24,24.657 22.657,26 21,26 L9,26 C7.343,26 6,24.657 6,23 L6,7 Z" id="Path" fill="#c1d4fe" opacity="0.6"></path>
            <path d="M15,12 C15.5125714,12 15.9354694,12.386027 15.9932682,12.8833761 L16,13 L16,17.586 L17.293,16.293 C17.683,15.902 18.317,15.902 18.707,16.293 C19.0679231,16.653 19.0956864,17.2209053 18.7902899,17.6128908 L18.707,17.707 L15.707,20.707 C15.611,20.803 15.501,20.875 15.383,20.924 C15.0603333,21.0573333 14.6831481,21.0152593 14.3961248,20.7970754 L14.293,20.707 L11.293,17.707 C10.902,17.317 10.902,16.683 11.293,16.293 C11.653,15.9320769 12.2209053,15.9043136 12.6128908,16.2097101 L12.707,16.293 L14,17.586 L14,13 C14,12.4477 14.448,12 15,12 Z M18.892,4 C19.601,4 20.282,4.2819 20.784,4.7836 L23.216,7.2164 C23.718,7.7181 24,8.3986 24,9.1082 C24,9.6007 23.601,10 23.108,10 L19,10 C18.448,10 18,9.5523 18,9 L18,4.8918 C18,4.3993 18.399,4 18.892,4 Z" id="Shape" fill="#1269FF"></path>
        </g>
    </g>
</svg>