<?xml version="1.0" encoding="UTF-8"?>
<svg width="22px" height="24px" viewBox="0 0 22 24" version="1.1" xmlns="http://www.w3.org/2000/svg" xmlns:xlink="http://www.w3.org/1999/xlink">
    <title>!Icons/Used/Commerce/Credit_card Copy</title>
    <defs>
        <filter x="-6.8%" y="-38.3%" width="113.5%" height="176.5%" filterUnits="objectBoundingBox" id="filter-1">
            <feGaussianBlur stdDeviation="25" in="SourceGraphic"></feGaussianBlur>
        </filter>
    </defs>
    <g id="Stratus-Bank" stroke="none" stroke-width="1" fill="none" fill-rule="evenodd">
        <g id="StratusBank/SwapCrypto/Exchange" transform="translate(-464.000000, -179.000000)">
            <rect fill="none" x="0" y="0" width="1440" height="874"></rect>
            <g id="Group-3" transform="translate(250.000000, 164.000000)">
                <g id="DoubleButtons_Bank">
                    <g id="Shape" transform="translate(210.000000, 12.000000)">
                        <path d="M25,19.5 C25.5522847,19.5 26,19.9477153 26,20.5 C26,21.0522847 25.5522847,21.5 25,21.5 L9,21.5 C8.44771525,21.5 8,21.0522847 8,20.5 C8,19.9477153 8.44771525,19.5 9,19.5 L25,19.5 Z M21,8.5 C21.5522847,8.5 22,8.94771525 22,9.5 C22,10.0522847 21.5522847,10.5 21,10.5 L5,10.5 C4.44771525,10.5 4,10.0522847 4,9.5 C4,8.94771525 4.44771525,8.5 5,8.5 L21,8.5 Z" fill="#A7B4CB" opacity="0.6"></path>
                        <path d="M11.7426434,14.4644661 C12.2918182,15.0136409 12.3261416,15.8827033 11.8456137,16.471864 L11.7426434,16.5857864 L7.82798324,20.4998737 L11.7426434,24.4142136 C12.3284298,25 12.3284298,25.9497475 11.7426434,26.5355339 C11.156857,27.1213203 10.2071095,27.1213203 9.62132307,26.5355339 L4.6715756,21.5857864 C4.37232619,21.286537 4.22594855,20.8923053 4.23244268,20.5001348 C4.22672227,20.1568522 4.33807686,19.8120526 4.56650839,19.5307129 L4.6715756,19.4142136 L9.62132307,14.4644661 C10.2071095,13.8786797 11.156857,13.8786797 11.7426434,14.4644661 Z M19.7928932,3.46446609 L24.7426407,8.41421356 C25.0418901,8.71346297 25.1882677,9.10769472 25.1817736,9.49986522 C25.187494,9.8431478 25.0761394,10.1879474 24.8477079,10.4692871 L24.7426407,10.5857864 L19.7928932,15.5355339 C19.2071068,16.1213203 18.2573593,16.1213203 17.6715729,15.5355339 C17.1223981,14.9863591 17.0880747,14.1172967 17.5686026,13.528136 L17.6715729,13.4142136 L21.586233,9.50012627 L17.6715729,5.58578644 C17.0857864,5 17.0857864,4.05025253 17.6715729,3.46446609 C18.2573593,2.87867966 19.2071068,2.87867966 19.7928932,3.46446609 Z" fill="#16161F"></path>
                    </g>
                </g>
            </g>
        </g>
    </g>
</svg>