<?xml version="1.0" encoding="UTF-8"?>
<svg width="22px" height="24px" viewBox="0 0 22 24" version="1.1" xmlns="http://www.w3.org/2000/svg" xmlns:xlink="http://www.w3.org/1999/xlink">
    <title>Bottom/Icon Copy 3</title>
    <defs>
        <radialGradient cx="55.9341948%" cy="-36.7017717%" fx="55.9341948%" fy="-36.7017717%" r="138.430962%" gradientTransform="translate(0.559342,-0.367018),scale(0.590909,1.000000),rotate(99.065579),scale(1.000000,2.196601),translate(-0.559342,0.367018)" id="radialGradient-1">
            <stop stop-color="#FFEB99" offset="0%"></stop>
            <stop stop-color="#FF9632" offset="100%"></stop>
        </radialGradient>
        <linearGradient x1="50%" y1="124.486268%" x2="50%" y2="0%" id="linearGradient-2">
            <stop stop-color="#6B00D6" offset="0%"></stop>
            <stop stop-color="#B9AEFF" offset="100%"></stop>
        </linearGradient>
    </defs>
    <g id="Stratus-Bank" stroke="none" stroke-width="1" fill="none" fill-rule="evenodd">
        <g id="StratusBank/AccountOverview" transform="translate(-30.000000, -304.000000)">
            <rect fill="none" x="0" y="0" width="1440" height="1308"></rect>
            <g id="SideMenu" transform="translate(17.000000, 148.000000)">
                <g id="Bottom/Icon-Copy-3" transform="translate(0.000000, 144.000000)">
                    <path d="M12.819426,-1.42475429e-15 L35.180574,5.17920154e-16 C39.6381677,-3.00926524e-16 41.2545989,0.464128056 42.8842285,1.33566352 C44.5138581,2.20719898 45.792801,3.48614185 46.6643365,5.11577148 C47.5358719,6.74540111 48,8.3618323 48,12.819426 L48,35.180574 C48,39.6381677 47.5358719,41.2545989 46.6643365,42.8842285 C45.792801,44.5138581 44.5138581,45.792801 42.8842285,46.6643365 C41.2545989,47.5358719 39.6381677,48 35.180574,48 L12.819426,48 C8.3618323,48 6.74540111,47.5358719 5.11577148,46.6643365 C3.48614185,45.792801 2.20719898,44.5138581 1.33566352,42.8842285 C0.464128056,41.2545989 7.27514433e-16,39.6381677 -1.25211424e-15,35.180574 L3.45280103e-16,12.819426 C-2.00617683e-16,8.3618323 0.464128056,6.74540111 1.33566352,5.11577148 C2.20719898,3.48614185 3.48614185,2.20719898 5.11577148,1.33566352 C6.74540111,0.464128056 8.3618323,8.27823274e-16 12.819426,-1.42475429e-15 Z" id="BG"></path>
                    <g id="Icon/Plus-Square" transform="translate(9.000000, 9.000000)">
                        <path d="M25,19.5 C25.5522847,19.5 26,19.9477153 26,20.5 C26,21.0522847 25.5522847,21.5 25,21.5 L9,21.5 C8.44771525,21.5 8,21.0522847 8,20.5 C8,19.9477153 8.44771525,19.5 9,19.5 L25,19.5 Z M21,8.5 C21.5522847,8.5 22,8.94771525 22,9.5 C22,10.0522847 21.5522847,10.5 21,10.5 L5,10.5 C4.44771525,10.5 4,10.0522847 4,9.5 C4,8.94771525 4.44771525,8.5 5,8.5 L21,8.5 Z" id="Shape" fill="url(#radialGradient-1)"></path>
                        <path d="M11.7426434,14.4644661 C12.2918182,15.0136409 12.3261416,15.8827033 11.8456137,16.471864 L11.7426434,16.5857864 L7.82798324,20.4998737 L11.7426434,24.4142136 C12.3284298,25 12.3284298,25.9497475 11.7426434,26.5355339 C11.156857,27.1213203 10.2071095,27.1213203 9.62132307,26.5355339 L4.6715756,21.5857864 C4.37232619,21.286537 4.22594855,20.8923053 4.23244268,20.5001348 C4.22672227,20.1568522 4.33807686,19.8120526 4.56650839,19.5307129 L4.6715756,19.4142136 L9.62132307,14.4644661 C10.2071095,13.8786797 11.156857,13.8786797 11.7426434,14.4644661 Z M19.7928932,3.46446609 L24.7426407,8.41421356 C25.0418901,8.71346297 25.1882677,9.10769472 25.1817736,9.49986522 C25.187494,9.8431478 25.0761394,10.1879474 24.8477079,10.4692871 L24.7426407,10.5857864 L19.7928932,15.5355339 C19.2071068,16.1213203 18.2573593,16.1213203 17.6715729,15.5355339 C17.1223981,14.9863591 17.0880747,14.1172967 17.5686026,13.528136 L17.6715729,13.4142136 L21.586233,9.50012627 L17.6715729,5.58578644 C17.0857864,5 17.0857864,4.05025253 17.6715729,3.46446609 C18.2573593,2.87867966 19.2071068,2.87867966 19.7928932,3.46446609 Z" id="Shape" fill="url(#linearGradient-2)"></path>
                    </g>
                </g>
            </g>
        </g>
    </g>
</svg>