<?xml version="1.0" encoding="UTF-8"?>
<svg width="20px" height="20px" viewBox="0 0 20 20" version="1.1" xmlns="http://www.w3.org/2000/svg" xmlns:xlink="http://www.w3.org/1999/xlink">
    <title>Bottom/Icon Copy 3</title>
    <defs>
        <radialGradient cx="6.9700972%" cy="10.3987043%" fx="6.9700972%" fy="10.3987043%" r="132.860036%" gradientTransform="translate(0.069701,0.103987),scale(1.000000,0.699952),rotate(74.472036),translate(-0.069701,-0.103987)" id="radialGradient-1">
            <stop stop-color="#6FC1FF" offset="0%"></stop>
            <stop stop-color="#6FC1FF" offset="46.2742752%"></stop>
            <stop stop-color="#7BB1FF" offset="100%"></stop>
        </radialGradient>
        <radialGradient cx="61.388675%" cy="-25.1773106%" fx="61.388675%" fy="-25.1773106%" r="126.094581%" gradientTransform="translate(0.613887,-0.251773),scale(0.750158,1.000000),rotate(96.915153),scale(1.000000,2.596732),translate(-0.613887,0.251773)" id="radialGradient-2">
            <stop stop-color="#FFA793" offset="0%"></stop>
            <stop stop-color="#FF2929" offset="100%"></stop>
        </radialGradient>
    </defs>
    <g id="Stratus-Bank" stroke="none" stroke-width="1" fill="none" fill-rule="evenodd">
        <g id="StratusBank/AccountOverview" transform="translate(-31.000000, -364.000000)">
            <rect fill="none" x="0" y="0" width="1440" height="1308"></rect>
            <g id="SideMenu" transform="translate(10.000000, 14.000000)">
                <g id="Bottom/Icon-Copy-3" transform="translate(7.000000, 336.000000)">
                    <path d="M12.819426,-1.42475429e-15 L35.180574,5.17920154e-16 C39.6381677,-3.00926524e-16 41.2545989,0.464128056 42.8842285,1.33566352 C44.5138581,2.20719898 45.792801,3.48614185 46.6643365,5.11577148 C47.5358719,6.74540111 48,8.3618323 48,12.819426 L48,35.180574 C48,39.6381677 47.5358719,41.2545989 46.6643365,42.8842285 C45.792801,44.5138581 44.5138581,45.792801 42.8842285,46.6643365 C41.2545989,47.5358719 39.6381677,48 35.180574,48 L12.819426,48 C8.3618323,48 6.74540111,47.5358719 5.11577148,46.6643365 C3.48614185,45.792801 2.20719898,44.5138581 1.33566352,42.8842285 C0.464128056,41.2545989 7.27514433e-16,39.6381677 -1.25211424e-15,35.180574 L3.45280103e-16,12.819426 C-2.00617683e-16,8.3618323 0.464128056,6.74540111 1.33566352,5.11577148 C2.20719898,3.48614185 3.48614185,2.20719898 5.11577148,1.33566352 C6.74540111,0.464128056 8.3618323,8.27823274e-16 12.819426,-1.42475429e-15 Z" id="BG"></path>
                    <g id="Group" transform="translate(9.000000, 9.000000)">
                        <g id="Giftbox" transform="translate(4.000000, 5.000000)">
                            <path d="M13,5 L17.9,5 C17.9,4.7 18,4.3 18,4 C18,1.790861 16.209139,-6.65916974e-16 14,-6.65916974e-16 C12.8353535,-0.0316897407 11.7238063,0.487032292 11,1.4 C10.2761937,0.487032292 9.16464647,-0.0316897407 8,-8.87961579e-16 C5.790861,2.22261445e-16 4,1.790861 4,4 C4,4.3 4.1,4.7 4.1,5 L9,5 L9,20 L13,20 L13,5 Z" id="Path" fill="url(#radialGradient-1)"></path>
                            <path d="M1.88284814,4.99375849 L2,5 L9,5 L9,20 L4,20 C3.72608506,20.0325803 3.45235669,19.9377481 3.25730429,19.7426957 C3.06225189,19.5476433 2.96741967,19.2739149 3,19 L3,19 L3,11 L2,11 C1.72608506,11.0325803 1.45235669,10.9377481 1.25730429,10.7426957 C1.06225189,10.5476433 0.967419673,10.2739149 1,10 L1,10 L1,6 C0.967419673,5.72608506 1.06225189,5.45235669 1.25730429,5.25730429 C1.45235669,5.06225189 1.72608506,4.96741967 2,5 Z M20,5 C20.2739149,4.96741967 20.5476433,5.06225189 20.7426957,5.25730429 C20.9377481,5.45235669 21.0325803,5.72608506 21,6 L21,6 L21,10 C21.0325803,10.2739149 20.9377481,10.5476433 20.7426957,10.7426957 C20.5476433,10.9377481 20.2739149,11.0325803 20,11 L20,11 L19,11 L19,19 C19.0325803,19.2739149 18.9377481,19.5476433 18.7426957,19.7426957 C18.5476433,19.9377481 18.2739149,20.0325803 18,20 L18,20 L13,20 L13,5 Z" id="Combined-Shape" fill="url(#radialGradient-2)"></path>
                        </g>
                    </g>
                </g>
            </g>
        </g>
    </g>
</svg>