<?xml version="1.0" encoding="UTF-8"?>
<svg width="16px" height="24px" viewBox="0 0 16 24" version="1.1" xmlns="http://www.w3.org/2000/svg" xmlns:xlink="http://www.w3.org/1999/xlink">
    <title>!Icons/Used/Commerce/Credit_card</title>
    <defs>
        <filter x="-6.8%" y="-38.3%" width="113.5%" height="176.5%" filterUnits="objectBoundingBox" id="filter-1">
            <feGaussianBlur stdDeviation="25" in="SourceGraphic"></feGaussianBlur>
        </filter>
        <filter id="filter-2">
            <feColorMatrix in="SourceGraphic" type="matrix" values="0 0 0 0 0.654902 0 0 0 0 0.705882 0 0 0 0 0.796078 0 0 0 1.000000 0"></feColorMatrix>
        </filter>
    </defs>
    <g id="Stratus-Bank" stroke="none" stroke-width="1" fill="none" fill-rule="evenodd">
        <g id="StratusBank/SwapCrypto/Exchange" transform="translate(-1045.000000, -179.000000)">
            <rect fill="none" x="0" y="0" width="1440" height="874"></rect>
            <g id="Group-3" transform="translate(250.000000, 164.000000)">
                <g id="DoubleButtons_Bank">
                    <g id="Group" transform="translate(788.000000, 12.000000)">
                        <g filter="url(#filter-2)" opacity="0.6">
                            <g transform="translate(8.000000, 3.000000)">
                                <path d="M13,0 C13.5523,0 14,0.448 14,1 L14,21 C14,21.552 13.5523,22 13,22 C12.4477,22 12,21.552 12,21 L12,1 C12,0.448 12.4477,0 13,0 Z" id="Path" fill="#12131A" fill-rule="nonzero"></path>
                                <path d="M1,4 C1.5523,4 2,4.448 2,5 L2,23 C2,23.552 1.5523,24 1,24 C0.4477,24 0,23.552 0,23 L0,5 C0,4.448 0.4477,4 1,4 Z" id="Path" fill="#12131A" fill-rule="nonzero"></path>
                            </g>
                        </g>
                        <path d="M10,15 C10.51285,15 10.9355092,15.3862857 10.9932725,15.8834315 L11,16 L11,20 C11,20.5125714 10.613973,20.9354694 10.1166239,20.9932682 L10,21 L8,21 C7.48715,21 7.06449082,20.6137143 7.00672751,20.1165685 L7,20 L7,16 C7,15.4874286 7.38602704,15.0645306 7.88337606,15.0067318 L8,15 L10,15 Z M22,9 C22.51285,9 22.9355092,9.38628571 22.9932725,9.88343149 L23,10 L23,18 C23,18.5125714 22.613973,18.9354694 22.1166239,18.9932682 L22,19 L20,19 C19.48715,19 19.0644908,18.6137143 19.0067275,18.1165685 L19,18 L19,10 C19,9.48742857 19.386027,9.06453061 19.8833761,9.00673178 L20,9 L22,9 Z" id="Shape" fill="#16161F"></path>
                    </g>
                </g>
            </g>
        </g>
    </g>
</svg>