<svg xmlns:xlink="http://www.w3.org/1999/xlink" xmlns="http://www.w3.org/2000/svg" version="1.1" viewBox="0 0 20 20" height="20px" width="20px">
    <title>Bottom/Icon Copy 18</title>
    <g fill-rule="evenodd" fill="none" stroke-width="1" stroke="none" id="Stratus-Bank">
        <g transform="translate(-31.000000, -782.000000)" id="StratusBank/Requested-Payment">
            <rect height="889" width="1440" y="0" x="0" fill="#F7F7F7"></rect>
            <g transform="translate(17.000000, 768.000000)" id="Bottom/Icon-Copy-18">
                <path id="BG" d="M12.819426,-1.42475429e-15 L35.180574,5.17920154e-16 C39.6381677,-3.00926524e-16 41.2545989,0.464128056 42.8842285,1.33566352 C44.5138581,2.20719898 45.792801,3.48614185 46.6643365,5.11577148 C47.5358719,6.74540111 48,8.3618323 48,12.819426 L48,35.180574 C48,39.6381677 47.5358719,41.2545989 46.6643365,42.8842285 C45.792801,44.5138581 44.5138581,45.792801 42.8842285,46.6643365 C41.2545989,47.5358719 39.6381677,48 35.180574,48 L12.819426,48 C8.3618323,48 6.74540111,47.5358719 5.11577148,46.6643365 C3.48614185,45.792801 2.20719898,44.5138581 1.33566352,42.8842285 C0.464128056,41.2545989 7.27514433e-16,39.6381677 -1.25211424e-15,35.180574 L3.45280103e-16,12.819426 C-2.00617683e-16,8.3618323 0.464128056,6.74540111 1.33566352,5.11577148 C2.20719898,3.48614185 3.48614185,2.20719898 5.11577148,1.33566352 C6.74540111,0.464128056 8.3618323,8.27823274e-16 12.819426,-1.42475429e-15 Z"></path>
                <g transform="translate(9.000000, 9.000000)" id="Path">
                    <path transform="translate(11.000000, 15.000000) rotate(-180.000000) translate(-11.000000, -15.000000)" opacity="0.6" fill="#A7B4CB" d="M8.1409,24.8611 C6.5331,24.7101 5.3267,23.4628 5.2092,21.8523 C5.0992,20.3432 5,18.118 5,15 C5,11.882 5.0992,9.65682 5.2092,8.14773 C5.3267,6.5372 6.5331,5.2899 8.1408,5.13886 C8.9779,5.06022 9.9589,5 11,5 C12.0411,5 13.0221,5.06022 13.8592,5.13886 C15.4669,5.2899 16.6733,6.53721 16.7908,8.14773 C16.9008,9.65683 17,11.882 17,15 C17,18.118 16.9008,20.3432 16.7908,21.8523 C16.6733,23.4628 15.4669,24.7101 13.8591,24.8611 C13.0221,24.9398 12.0411,25 11,25 C9.9589,25 8.9779,24.9398 8.1409,24.8611 Z"></path>
                    <path transform="translate(18.000000, 15.000013) rotate(-180.000000) translate(-18.000000, -15.000013)" fill="#16161F" d="M16.20711,17.792925 C16.59763,18.183425 16.59763,18.816625 16.20711,19.207125 C15.81658,19.597625 15.18342,19.597625 14.79289,19.207125 L11.29289,15.707125 C10.90237,15.316625 10.90237,14.683425 11.29289,14.292925 L14.79289,10.792915 C15.18342,10.402395 15.81658,10.402395 16.20711,10.792915 C16.59763,11.183445 16.59763,11.816605 16.20711,12.207135 L14.41421,14.000025 L24,14.000025 C24.5523,14.000025 25,14.447725 25,15.000025 C25,15.552325 24.5523,16.000025 24,16.000025 L14.41421,16.000025 L16.20711,17.792925 Z"></path>
                </g>
            </g>
        </g>
    </g>
</svg>