<?xml version="1.0" encoding="UTF-8"?>
<svg width="23px" height="18px" viewBox="0 0 23 18" version="1.1" xmlns="http://www.w3.org/2000/svg" xmlns:xlink="http://www.w3.org/1999/xlink">
    <title>Bottom/Icon Copy 3</title>
    <defs>
        <radialGradient cx="61.7758911%" cy="-28.0814902%" fx="61.7758911%" fy="-28.0814902%" r="140.404921%" gradientTransform="translate(0.617759,-0.280815),scale(0.596806,1.000000),rotate(99.587683),scale(1.000000,2.941459),translate(-0.617759,0.280815)" id="radialGradient-1">
            <stop stop-color="#69BFFF" offset="0%"></stop>
            <stop stop-color="#4545EA" offset="100%"></stop>
        </radialGradient>
    </defs>
    <g id="Stratus-Bank" stroke="none" stroke-width="1" fill="none" fill-rule="evenodd">
        <g id="StratusBank/AccountOverview" transform="translate(-29.000000, -211.000000)">
            <rect fill="none" x="0" y="0" width="1440" height="1308"></rect>
            <g id="SideMenu" transform="translate(17.000000, 148.000000)">
                <g id="Bottom/Icon-Copy-3" transform="translate(0.000000, 48.000000)">
                    <path d="M12.819426,-1.42475429e-15 L35.180574,5.17920154e-16 C39.6381677,-3.00926524e-16 41.2545989,0.464128056 42.8842285,1.33566352 C44.5138581,2.20719898 45.792801,3.48614185 46.6643365,5.11577148 C47.5358719,6.74540111 48,8.3618323 48,12.819426 L48,35.180574 C48,39.6381677 47.5358719,41.2545989 46.6643365,42.8842285 C45.792801,44.5138581 44.5138581,45.792801 42.8842285,46.6643365 C41.2545989,47.5358719 39.6381677,48 35.180574,48 L12.819426,48 C8.3618323,48 6.74540111,47.5358719 5.11577148,46.6643365 C3.48614185,45.792801 2.20719898,44.5138581 1.33566352,42.8842285 C0.464128056,41.2545989 7.27514433e-16,39.6381677 -1.25211424e-15,35.180574 L3.45280103e-16,12.819426 C-2.00617683e-16,8.3618323 0.464128056,6.74540111 1.33566352,5.11577148 C2.20719898,3.48614185 3.48614185,2.20719898 5.11577148,1.33566352 C6.74540111,0.464128056 8.3618323,8.27823274e-16 12.819426,-1.42475429e-15 Z" id="BG"></path>
                    <g id="Group" transform="translate(9.000000, 9.000000)">
                        <g id="Payment" transform="translate(2.999922, 6.000000)">
                            <path d="M16.6847458,13.7198 C16.5677966,13.8402 16.4898305,13.9998 16.3728814,14.1198 C15.7101695,14.7998 14.8135593,15.1602 13.8779661,15.1602 C12.9423729,15.1602 12.0457627,14.7998 11.3830508,14.1198 L9.62881356,12.3198 L10.6423729,11.2798 L12.3966102,13.0798 C12.7864407,13.4798 13.3322034,13.7198 13.8779661,13.7198 C14.4237288,13.7198 14.9305085,13.5198 15.359322,13.0798 C16.1779661,12.2402 16.1779661,10.8798 15.359322,10.0402 L10.4084746,4.9602 C10.0186441,4.5602 9.47288136,4.3198 8.92711864,4.3198 L-3.73034936e-14,4.3198 L-3.73034936e-14,11.3602 L4.83389831,11.3602 L10.6813559,17.3602 C11.0711864,17.7602 11.6169492,17.9998 12.1627119,17.9998 L20.817339,17.9998 C21.9868305,17.9998 22.9220339,17.0402 22.9220339,15.8402 C22.9045545,15.319896 22.7068139,14.8398819 22.3885529,14.468633 C21.9970173,14.0119097 21.4230771,13.7198 20.7779661,13.7198 L16.6847458,13.7198 Z" id="Fill-1" fill="url(#radialGradient-1)"></path>
                            <circle id="Oval" fill="#16161F" cx="17.000078" cy="4" r="4"></circle>
                        </g>
                    </g>
                </g>
            </g>
        </g>
    </g>
</svg>