<svg xmlns:xlink="http://www.w3.org/1999/xlink" xmlns="http://www.w3.org/2000/svg" version="1.1" viewBox="0 0 20 20" height="20px" width="20px">
    <title>!Icons/Used/Commerce/Credit_card Copy</title>
    <defs>
        <filter id="filter-1" filterUnits="objectBoundingBox" height="123.1%" width="113.5%" y="-11.6%" x="-6.8%">
            <feGaussianBlur in="SourceGraphic" stdDeviation="25"></feGaussianBlur>
        </filter>
    </defs>
    <g fill-rule="evenodd" fill="none" stroke-width="1" stroke="none" id="Stratus-Bank">
        <g transform="translate(-446.000000, -181.000000)" id="StratusBank/PaymentRequest">
            <rect height="889" width="1440" y="0" x="0" fill="none"></rect>
            <g transform="translate(250.000000, 164.000000)" id="Group-3"> 
                <g id="DoubleButtons_Bank">
                    <g transform="translate(191.000000, 12.000000)" id="Path">
                        <path opacity="0.4" fill="#A7B4CB" d="M9.54184,5.36899 C7.34504,5.65912 5.65912,7.34504 5.36899,9.54184 C5.16953,11.05208 5,12.94127 5,15 C5,17.0587 5.16953,18.9479 5.36899,20.4582 C5.65912,22.655 7.34504,24.3409 9.54184,24.631 C11.05208,24.8305 12.94127,25 15,25 C17.0587,25 18.9479,24.8305 20.4582,24.631 C22.655,24.3409 24.3409,22.655 24.631,20.4582 C24.8305,18.9479 25,17.0587 25,15 C25,12.94127 24.8305,11.05208 24.631,9.54184 C24.3409,7.34504 22.655,5.65912 20.4582,5.36899 C18.9479,5.16953 17.0587,5 15,5 C12.94127,5 11.05208,5.16953 9.54184,5.36899 Z"></path>
                        <path fill="#16161F" d="M15,20 C15.5523,20 16,19.5523 16,19 L16,16 L19,16 C19.5523,16 20,15.5523 20,15 C20,14.4477 19.5523,14 19,14 L16,14 L16,11 C16,10.44772 15.5523,10 15,10 C14.4477,10 14,10.44772 14,11 L14,14 L11,14 C10.44772,14 10,14.4477 10,15 C10,15.5523 10.44771,16 11,16 L14,16 L14,19 C14,19.5523 14.4477,20 15,20 Z"></path>
                    </g>
                </g>
            </g>
        </g>
    </g>
</svg>