<?xml version="1.0" encoding="UTF-8"?>
<svg width="20px" height="20px" viewBox="0 0 20 20" version="1.1" xmlns="http://www.w3.org/2000/svg" xmlns:xlink="http://www.w3.org/1999/xlink">
    <title>Symbols</title>
    <g id="Symbols" stroke="none" stroke-width="1" fill="none" fill-rule="evenodd">
        <g id="!Icons/Used/Technology/Print" transform="translate(-5.000000, -5.000000)">
            <path d="M5,14 C5,12.8954 5.89543,12 7,12 L23,12 C24.1046,12 25,12.8954 25,14 L25,20 C25,21.105 24.1046,22 23,22 L7,22 C5.89543,22 5,21.105 5,20 L5,14 Z" id="Path" fill="#c1d4fe" opacity="0.6"></path>
            <path d="M19,18 C19.5523,18 20,18.448 20,19 L20,23 C20,24.105 19.1046,25 18,25 L12,25 C10.89543,25 10,24.105 10,23 L10,19 C10,18.448 10.44772,18 11,18 L19,18 Z M18,5 C19.1046,5 20,5.8954 20,7 L20,12 L10,12 L10,7 C10,5.8954 10.89543,5 12,5 L18,5 Z" id="Shape" fill="#1269FF"></path>
        </g>
    </g>
</svg>