<?xml version="1.0" encoding="UTF-8"?>
<svg width="20px" height="20px" viewBox="0 0 20 20" version="1.1" xmlns="http://www.w3.org/2000/svg" xmlns:xlink="http://www.w3.org/1999/xlink">
    <title>Bottom/Icon Copy 3</title>
    <defs>
        <radialGradient cx="6.36450801%" cy="-15.3317337%" fx="6.36450801%" fy="-15.3317337%" r="98.4195356%" id="radialGradient-1">
            <stop stop-color="#8ACDFF" offset="0%"></stop>
            <stop stop-color="#78C5FF" offset="46.2742752%"></stop>
            <stop stop-color="#7BB1FF" offset="100%"></stop>
        </radialGradient>
        <radialGradient cx="68.6755151%" cy="-11.7355238%" fx="68.6755151%" fy="-11.7355238%" r="134.271486%" gradientTransform="translate(0.686755,-0.117355),rotate(94.981253),scale(1.000000,2.690756),translate(-0.686755,0.117355)" id="radialGradient-2">
            <stop stop-color="#FFF4DC" offset="0%"></stop>
            <stop stop-color="#EDB134" offset="100%"></stop>
        </radialGradient>
    </defs>
    <g id="Stratus-Bank" stroke="none" stroke-width="1" fill="none" fill-rule="evenodd">
        <g id="StratusBank/AccountOverview" transform="translate(-31.000000, -412.000000)">
            <rect fill="none" x="0" y="0" width="1440" height="1308"></rect>
            <g id="SideMenu" transform="translate(10.000000, 14.000000)">
                <g id="Bottom/Icon-Copy-3" transform="translate(7.000000, 384.000000)">
                    <path d="M12.819426,-1.42475429e-15 L35.180574,5.17920154e-16 C39.6381677,-3.00926524e-16 41.2545989,0.464128056 42.8842285,1.33566352 C44.5138581,2.20719898 45.792801,3.48614185 46.6643365,5.11577148 C47.5358719,6.74540111 48,8.3618323 48,12.819426 L48,35.180574 C48,39.6381677 47.5358719,41.2545989 46.6643365,42.8842285 C45.792801,44.5138581 44.5138581,45.792801 42.8842285,46.6643365 C41.2545989,47.5358719 39.6381677,48 35.180574,48 L12.819426,48 C8.3618323,48 6.74540111,47.5358719 5.11577148,46.6643365 C3.48614185,45.792801 2.20719898,44.5138581 1.33566352,42.8842285 C0.464128056,41.2545989 7.27514433e-16,39.6381677 -1.25211424e-15,35.180574 L3.45280103e-16,12.819426 C-2.00617683e-16,8.3618323 0.464128056,6.74540111 1.33566352,5.11577148 C2.20719898,3.48614185 3.48614185,2.20719898 5.11577148,1.33566352 C6.74540111,0.464128056 8.3618323,8.27823274e-16 12.819426,-1.42475429e-15 Z" id="BG"></path>
                    <g id="Icon/Plus-Square" transform="translate(9.000000, 9.000000)">
                        <path d="M5,7 C5,5.8954 5.89543,5 7,5 L23,5 C24.1046,5 25,5.8954 25,7 L25,23 C25,24.105 24.1046,25 23,25 L7,25 C5.89543,25 5,24.105 5,23 L5,7 Z" id="Path" fill="url(#radialGradient-1)"></path>
                        <path d="M17,20 C17.5523,20 18,20.448 18,21 C18,21.552 17.5523,22 17,22 L9,22 C8.44772,22 8,21.552 8,21 C8,20.448 8.44772,20 9,20 L17,20 Z M21,16 C21.5523,16 22,16.448 22,17 C22,17.5125714 21.613973,17.9354694 21.1166239,17.9932682 L21,18 L9,18 C8.44772,18 8,17.552 8,17 C8,16.4874286 8.38604429,16.0645306 8.88337975,16.0067318 L9,16 L21,16 Z M13,12 C13.5523,12 14,12.4477 14,13 C14,13.51285 13.613973,13.9355092 13.1166239,13.9932725 L13,14 L9,14 C8.44772,14 8,13.5523 8,13 C8,12.48715 8.38604429,12.0644908 8.88337975,12.0067275 L9,12 L13,12 Z M19,8 C19.5523,8 20,8.4477 20,9 C20,9.51285 19.613973,9.93550918 19.1166239,9.99327249 L19,10 L9,10 C8.44771,10 8,9.5523 8,9 C8,8.48715 8.38604429,8.06449082 8.88337975,8.00672751 L9,8 L19,8 Z" id="Shape" fill="url(#radialGradient-2)"></path>
                    </g>
                </g>
            </g>
        </g>
    </g>
</svg>